<?xml version="1.0" encoding="UTF-8" standalone="no"?>
<svg width="359px" height="50px" viewBox="0 0 359 50" version="1.1" xmlns="http://www.w3.org/2000/svg" xmlns:xlink="http://www.w3.org/1999/xlink">
    <!-- Generator: Sketch 3.8.3 (29802) - http://www.bohemiancoding.com/sketch -->
    <title>Canyon-Logo</title>
    <desc>Created with Sketch.</desc>
    <defs></defs>
    <g id="Page-1" stroke="none" stroke-width="1" fill="none" fill-rule="evenodd">
        <g id="160712-Canyon-Logo" transform="translate(-56.000000, -88.000000)" fill="#000000">
            <g id="Canyon-Logo" transform="translate(56.000000, 88.000000)">
                <polygon id="Fill-107" points="306.209271 1.19971154 345.866614 47.4506731 345.534552 47.4449038 287.774007 1.19971154 276.068801 1.19971154 316.782181 49.4891346 328.40244 49.4891346 305.032572 23.2439423 304.933146 23.2439423 337.941516 49.9006731 358.155825 49.9006731 317.100729 1.19971154"></polygon>
                <path d="M259.054842,35.3093269 C263.501971,40.4400962 269.609412,46.2891346 274.645373,49.4891346 L259.929402,49.4891346 C259.843491,49.4891346 259.784608,49.4766346 259.724759,49.4314423 C257.581797,47.7545192 252.768821,42.8122115 247.53594,36.4949038 L233.015925,18.9650962 C224.432494,8.56509615 226.145898,0.135288462 236.390607,0.135288462 C249.815974,0.135288462 262.161172,8.47278846 272.520751,21.0141346 L280.0105,30.0775962 C287.106406,38.6574038 289.296668,43.9535577 290.361392,49.9006731 L280.7393,49.9006731 C279.832885,45.8516346 278.023916,42.1593269 274.032408,37.3574038 L263.421851,24.5035577 C255.25929,14.6516346 246.464459,10.1141346 243.778034,9.74971154 C239.7344,9.20355769 239.152325,11.4574038 242.643809,15.6929808 L259.054842,35.3093269 Z" id="Fill-108"></path>
                <polygon id="Fill-110" points="222.464444 36.4114423 206.270602 1.19990385 196.212196 1.19990385 208.286145 25.3075962 207.956978 25.3047115 175.687061 1.19990385 161.3881 1.19990385 211.951382 38.42875 221.665177 49.9008654 233.890678 49.9008654"></polygon>
                <polygon id="Fill-111" points="132.753882 1.19971154 172.40833 47.4506731 172.076267 47.4449038 114.318618 1.19971154 102.619205 1.19971154 143.320035 49.4891346 154.947052 49.4891346 131.148591 23.2439423 131.477758 23.2439423 164.486128 49.9006731 184.69754 49.9006731 143.652098 1.19971154"></polygon>
                <polygon id="Fill-112" points="57.7070674 1.19971154 82.7092546 49.4891346 93.1199951 49.4891346 74.1460948 14.2593269 74.4675391 14.2593269 111.110257 49.9006731 124.241207 49.9006731 73.0668915 1.19971154"></polygon>
                <path d="M53.061184,49.9101923 L63.1688209,49.9101923 C62.6745882,46.0813462 60.9766288,41.5755769 57.4725965,37.3765385 L46.3649108,37.3765385 C50.354488,42.1746154 52.1615261,45.8630769 53.061184,49.9101923" id="Fill-113"></path>
                <path d="M9.4826063,0.200096154 C-0.7534152,0.200096154 -2.46006232,8.61932692 6.1088893,19.0039423 L20.6153898,36.5154808 C25.8395833,42.8318269 30.649664,47.7654808 32.7868341,49.4385577 C32.8437867,49.48375 32.9026698,49.5010577 32.9895467,49.5010577 L47.6900721,49.5010577 C42.6541117,46.2991346 36.5592192,40.4558654 32.1207783,35.3327885 L15.7290506,15.7356731 C12.2375672,11.5058654 12.8177114,9.25298077 16.8681024,9.80105769 C18.9116386,10.0789423 24.5171249,12.7885577 30.6776576,18.4308654 L43.3143756,18.4308654 C33.4442021,7.37605769 21.9301259,0.200096154 9.4826063,0.200096154" id="Fill-115"></path>
            </g>
        </g>
    </g>
</svg>